<svg xmlns="http://www.w3.org/2000/svg" width="512" height="512" viewBox="0 0 512 512"><defs><linearGradient id="g" x1="0" y1="0" x2="0" y2="1"><stop offset="0" stop-color="#2740F0"></stop><stop offset="1" stop-color="#1426C8"></stop></linearGradient><linearGradient id="hl" x1="0" y1="0" x2="0" y2="1"><stop offset="0" stop-color="#fff" stop-opacity=".18"></stop><stop offset=".55" stop-color="#fff" stop-opacity="0"></stop></linearGradient></defs><path d="M512.00 256.00 L511.96 317.73 L511.83 337.44 L511.62 351.76 L511.33 363.40 L510.95 373.37 L510.49 382.17 L509.95 390.10 L509.32 397.34 L508.60 404.02 L507.80 410.23 L506.91 416.04 L505.94 421.50 L504.87 426.65 L503.72 431.53 L502.48 436.15 L501.15 440.55 L499.73 444.73 L498.21 448.72 L496.60 452.53 L494.90 456.17 L493.09 459.65 L491.19 462.98 L489.19 466.16 L487.08 469.21 L484.87 472.12 L482.55 474.91 L480.12 477.57 L477.57 480.12 L474.91 482.55 L472.12 484.87 L469.21 487.08 L466.16 489.19 L462.98 491.19 L459.65 493.09 L456.17 494.90 L452.53 496.60 L448.72 498.21 L444.73 499.73 L440.55 501.15 L436.15 502.48 L431.53 503.72 L426.65 504.87 L421.50 505.94 L416.04 506.91 L410.23 507.80 L404.02 508.60 L397.34 509.32 L390.10 509.95 L382.17 510.49 L373.37 510.95 L363.40 511.33 L351.76 511.62 L337.44 511.83 L317.73 511.96 L256.00 512.00 L194.27 511.96 L174.56 511.83 L160.24 511.62 L148.60 511.33 L138.63 510.95 L129.83 510.49 L121.90 509.95 L114.66 509.32 L107.98 508.60 L101.77 507.80 L95.96 506.91 L90.50 505.94 L85.35 504.87 L80.47 503.72 L75.85 502.48 L71.45 501.15 L67.27 499.73 L63.28 498.21 L59.47 496.60 L55.83 494.90 L52.35 493.09 L49.02 491.19 L45.84 489.19 L42.79 487.08 L39.88 484.87 L37.09 482.55 L34.43 480.12 L31.88 477.57 L29.45 474.91 L27.13 472.12 L24.92 469.21 L22.81 466.16 L20.81 462.98 L18.91 459.65 L17.10 456.17 L15.40 452.53 L13.79 448.72 L12.27 444.73 L10.85 440.55 L9.52 436.15 L8.28 431.53 L7.13 426.65 L6.06 421.50 L5.09 416.04 L4.20 410.23 L3.40 404.02 L2.68 397.34 L2.05 390.10 L1.51 382.17 L1.05 373.37 L0.67 363.40 L0.38 351.76 L0.17 337.44 L0.04 317.73 L0.00 256.00 L0.04 194.27 L0.17 174.56 L0.38 160.24 L0.67 148.60 L1.05 138.63 L1.51 129.83 L2.05 121.90 L2.68 114.66 L3.40 107.98 L4.20 101.77 L5.09 95.96 L6.06 90.50 L7.13 85.35 L8.28 80.47 L9.52 75.85 L10.85 71.45 L12.27 67.27 L13.79 63.28 L15.40 59.47 L17.10 55.83 L18.91 52.35 L20.81 49.02 L22.81 45.84 L24.92 42.79 L27.13 39.88 L29.45 37.09 L31.88 34.43 L34.43 31.88 L37.09 29.45 L39.88 27.13 L42.79 24.92 L45.84 22.81 L49.02 20.81 L52.35 18.91 L55.83 17.10 L59.47 15.40 L63.28 13.79 L67.27 12.27 L71.45 10.85 L75.85 9.52 L80.47 8.28 L85.35 7.13 L90.50 6.06 L95.96 5.09 L101.77 4.20 L107.98 3.40 L114.66 2.68 L121.90 2.05 L129.83 1.51 L138.63 1.05 L148.60 0.67 L160.24 0.38 L174.56 0.17 L194.27 0.04 L256.00 0.00 L317.73 0.04 L337.44 0.17 L351.76 0.38 L363.40 0.67 L373.37 1.05 L382.17 1.51 L390.10 2.05 L397.34 2.68 L404.02 3.40 L410.23 4.20 L416.04 5.09 L421.50 6.06 L426.65 7.13 L431.53 8.28 L436.15 9.52 L440.55 10.85 L444.73 12.27 L448.72 13.79 L452.53 15.40 L456.17 17.10 L459.65 18.91 L462.98 20.81 L466.16 22.81 L469.21 24.92 L472.12 27.13 L474.91 29.45 L477.57 31.88 L480.12 34.43 L482.55 37.09 L484.87 39.88 L487.08 42.79 L489.19 45.84 L491.19 49.02 L493.09 52.35 L494.90 55.83 L496.60 59.47 L498.21 63.28 L499.73 67.27 L501.15 71.45 L502.48 75.85 L503.72 80.47 L504.87 85.35 L505.94 90.50 L506.91 95.96 L507.80 101.77 L508.60 107.98 L509.32 114.66 L509.95 121.90 L510.49 129.83 L510.95 138.63 L511.33 148.60 L511.62 160.24 L511.83 174.56 L511.96 194.27 L512.00 256.00 Z" fill="url(#g)"></path><path d="M512.00 256.00 L511.96 317.73 L511.83 337.44 L511.62 351.76 L511.33 363.40 L510.95 373.37 L510.49 382.17 L509.95 390.10 L509.32 397.34 L508.60 404.02 L507.80 410.23 L506.91 416.04 L505.94 421.50 L504.87 426.65 L503.72 431.53 L502.48 436.15 L501.15 440.55 L499.73 444.73 L498.21 448.72 L496.60 452.53 L494.90 456.17 L493.09 459.65 L491.19 462.98 L489.19 466.16 L487.08 469.21 L484.87 472.12 L482.55 474.91 L480.12 477.57 L477.57 480.12 L474.91 482.55 L472.12 484.87 L469.21 487.08 L466.16 489.19 L462.98 491.19 L459.65 493.09 L456.17 494.90 L452.53 496.60 L448.72 498.21 L444.73 499.73 L440.55 501.15 L436.15 502.48 L431.53 503.72 L426.65 504.87 L421.50 505.94 L416.04 506.91 L410.23 507.80 L404.02 508.60 L397.34 509.32 L390.10 509.95 L382.17 510.49 L373.37 510.95 L363.40 511.33 L351.76 511.62 L337.44 511.83 L317.73 511.96 L256.00 512.00 L194.27 511.96 L174.56 511.83 L160.24 511.62 L148.60 511.33 L138.63 510.95 L129.83 510.49 L121.90 509.95 L114.66 509.32 L107.98 508.60 L101.77 507.80 L95.96 506.91 L90.50 505.94 L85.35 504.87 L80.47 503.72 L75.85 502.48 L71.45 501.15 L67.27 499.73 L63.28 498.21 L59.47 496.60 L55.83 494.90 L52.35 493.09 L49.02 491.19 L45.84 489.19 L42.79 487.08 L39.88 484.87 L37.09 482.55 L34.43 480.12 L31.88 477.57 L29.45 474.91 L27.13 472.12 L24.92 469.21 L22.81 466.16 L20.81 462.98 L18.91 459.65 L17.10 456.17 L15.40 452.53 L13.79 448.72 L12.27 444.73 L10.85 440.55 L9.52 436.15 L8.28 431.53 L7.13 426.65 L6.06 421.50 L5.09 416.04 L4.20 410.23 L3.40 404.02 L2.68 397.34 L2.05 390.10 L1.51 382.17 L1.05 373.37 L0.67 363.40 L0.38 351.76 L0.17 337.44 L0.04 317.73 L0.00 256.00 L0.04 194.27 L0.17 174.56 L0.38 160.24 L0.67 148.60 L1.05 138.63 L1.51 129.83 L2.05 121.90 L2.68 114.66 L3.40 107.98 L4.20 101.77 L5.09 95.96 L6.06 90.50 L7.13 85.35 L8.28 80.47 L9.52 75.85 L10.85 71.45 L12.27 67.27 L13.79 63.28 L15.40 59.47 L17.10 55.83 L18.91 52.35 L20.81 49.02 L22.81 45.84 L24.92 42.79 L27.13 39.88 L29.45 37.09 L31.88 34.43 L34.43 31.88 L37.09 29.45 L39.88 27.13 L42.79 24.92 L45.84 22.81 L49.02 20.81 L52.35 18.91 L55.83 17.10 L59.47 15.40 L63.28 13.79 L67.27 12.27 L71.45 10.85 L75.85 9.52 L80.47 8.28 L85.35 7.13 L90.50 6.06 L95.96 5.09 L101.77 4.20 L107.98 3.40 L114.66 2.68 L121.90 2.05 L129.83 1.51 L138.63 1.05 L148.60 0.67 L160.24 0.38 L174.56 0.17 L194.27 0.04 L256.00 0.00 L317.73 0.04 L337.44 0.17 L351.76 0.38 L363.40 0.67 L373.37 1.05 L382.17 1.51 L390.10 2.05 L397.34 2.68 L404.02 3.40 L410.23 4.20 L416.04 5.09 L421.50 6.06 L426.65 7.13 L431.53 8.28 L436.15 9.52 L440.55 10.85 L444.73 12.27 L448.72 13.79 L452.53 15.40 L456.17 17.10 L459.65 18.91 L462.98 20.81 L466.16 22.81 L469.21 24.92 L472.12 27.13 L474.91 29.45 L477.57 31.88 L480.12 34.43 L482.55 37.09 L484.87 39.88 L487.08 42.79 L489.19 45.84 L491.19 49.02 L493.09 52.35 L494.90 55.83 L496.60 59.47 L498.21 63.28 L499.73 67.27 L501.15 71.45 L502.48 75.85 L503.72 80.47 L504.87 85.35 L505.94 90.50 L506.91 95.96 L507.80 101.77 L508.60 107.98 L509.32 114.66 L509.95 121.90 L510.49 129.83 L510.95 138.63 L511.33 148.60 L511.62 160.24 L511.83 174.56 L511.96 194.27 L512.00 256.00 Z" fill="url(#hl)"></path><g fill="none" stroke="#fff" stroke-width="46" stroke-linecap="round" stroke-linejoin="round"><path d="M180 360 V152 H260 a54 54 0 0 1 0 108 H180"></path><path d="M202 260 L322 360"></path></g></svg>